Coordinates
version=1
nRows=27
nColumns=12
inDegrees=yes

Units are S.I. units (second, meters, Newtons, ...)
Angles are in degrees

endheader
time	SC_y	SC_z	SC_x	AC_y	AC_z	AC_x	GH_y	GH_z	GH_yy	EL_x	PS_y
       0.0              -40.18          26.54          24.55          66.71          7.029          19.55          23.13          54.63         -1.057          78.09          130.2
   0.01674              -40.18          26.54          24.56           66.7          7.028          19.55          23.13          54.62         -1.049          78.09          130.2
   0.03348              -40.17          26.54          24.56           66.7          7.027          19.54          23.14          54.62         -1.041          78.09          130.2
   0.05022              -40.17          26.54          24.57           66.7          7.026          19.54          23.14          54.61         -1.031          78.09          130.2
   0.06696              -40.16          26.54          24.58           66.7          7.025          19.53          23.15           54.6         -1.022          78.09          130.2
    0.0837              -40.16          26.54          24.58           66.7          7.025          19.53          23.16          54.59         -1.011          78.09          130.2
    0.1004              -40.15          26.54          24.59           66.7          7.023          19.52          23.16          54.58        -0.9999          78.09          130.1
    0.1172              -40.15          26.54           24.6          66.69          7.022          19.51          23.17          54.57         -0.988          78.09          130.1
    0.1339              -40.14          26.54          24.61          66.69          7.021          19.51          23.18          54.55        -0.9752          78.09          130.1
    0.1507              -40.13          26.54          24.62          66.69           7.02           19.5          23.19          54.54        -0.9615          78.09          130.1
    0.1674              -40.12          26.54          24.63          66.69          7.019          19.49           23.2          54.53        -0.9467          78.09          130.1
    0.1841              -40.12          26.53          24.64          66.68          7.017          19.48          23.21          54.51        -0.9309          78.09          130.1
    0.2009              -40.11          26.53          24.65          66.68          7.016          19.47          23.22           54.5        -0.9138           78.1          130.1
    0.2176               -40.1          26.53          24.66          66.68          7.014          19.46          23.23          54.48        -0.8953           78.1          130.1
    0.2344              -40.09          26.53          24.68          66.67          7.012          19.45          23.24          54.46        -0.8753           78.1          130.1
    0.2511              -40.08          26.53          24.69          66.67           7.01          19.44          23.26          54.44        -0.8536           78.1          130.0
    0.2678              -40.07          26.53          24.71          66.66          7.008          19.42          23.27          54.42        -0.8301           78.1          130.0
    0.2846              -40.05          26.53          24.73          66.66          7.006          19.41          23.29          54.39        -0.8044           78.1          130.0
    0.3013              -40.04          26.53          24.75          66.65          7.003          19.39          23.31          54.37        -0.7764           78.1          130.0
    0.3181              -40.02          26.52          24.77          66.65            7.0          19.37          23.33          54.34        -0.7457          78.11          129.9
    0.3348              -40.01          26.52          24.79          66.64          6.997          19.35          23.35          54.31        -0.7121          78.11          129.9
    0.3515              -39.99          26.52          24.82          66.63          6.994          19.33          23.37          54.27         -0.675          78.11          129.9
    0.3683              -39.97          26.52          24.85          66.63           6.99          19.31           23.4          54.23         -0.634          78.11          129.9
     0.385              -39.94          26.51          24.88          66.62          6.986          19.28          23.43          54.19        -0.5887          78.11          129.8
    0.4018              -39.92          26.51          24.92          66.61          6.981          19.25          23.46          54.14        -0.5382          78.12          129.8
    0.4185              -39.89          26.51          24.96           66.6          6.976          19.22           23.5          54.09         -0.482          78.12          129.7
    0.4352              -39.86           26.5           25.0          66.58           6.97          19.18          23.54          54.03        -0.4189          78.12          129.7
